<svg xmlns="http://www.w3.org/2000/svg" width="34" height="34" viewBox="0 0 34 34"><defs><style>.a{fill-rule:evenodd;}</style></defs><path class="a" d="M18.988,34H0V2.833H4.25C5.994,2.833,7.34,1.3,8.5,0H19.833c1.163,1.3,2.51,2.833,4.25,2.833h4.25V15.8a10.725,10.725,0,0,0-2.125-.212l-.708.023V5.667H19.833L17,8.5H11.479L8.5,5.667H2.833v25.5H16.81A10.666,10.666,0,0,0,18.988,34Zm7.221-15.583a7.792,7.792,0,1,1-7.792,7.792A7.8,7.8,0,0,1,26.208,18.417Zm0,2.833a4.958,4.958,0,1,1-4.958,4.958A4.961,4.961,0,0,1,26.208,21.25Zm3.542,5.667H25.5v-4.25h1.417V25.5H29.75ZM8.286,21.176,6.8,19.782,5.667,20.948l2.641,2.516,4.443-4.522L11.6,17.8,8.286,21.176ZM17,22.667H14.167V21.25H17Zm2.833-2.833H14.167V18.417h5.667Zm-11.547-5.7L6.8,12.739,5.667,13.9l2.641,2.516L12.75,11.9,11.6,10.754,8.286,14.131Zm11.547,1.452H14.167V14.167h5.667Zm0-2.833H14.167V11.333h5.667ZM12.75,4.25a1.417,1.417,0,1,0,1.417-1.417A1.418,1.418,0,0,0,12.75,4.25Z"/></svg>