<svg xmlns="http://www.w3.org/2000/svg" width="34" height="34" viewBox="0 0 34 34"><defs><style>.a{fill-rule:evenodd;}</style></defs><path class="a" d="M9.52,29.03a14.163,14.163,0,0,0,14.949.007l1.757,2.241a17,17,0,0,1-18.462-.007L9.52,29.03Zm9.074-1.405-.842.554a.659.659,0,0,1-.435.154h-.633a.66.66,0,0,1-.436-.154l-.842-.554ZM34,26.917H25.5a2.833,2.833,0,0,1,2.833-2.833h2.833A2.834,2.834,0,0,1,34,26.917Zm-25.5,0H0a2.833,2.833,0,0,1,2.833-2.833H5.667A2.834,2.834,0,0,1,8.5,26.917Zm10.123-.708a.354.354,0,1,1,0,.708H15.395a.354.354,0,1,1,0-.708Zm.35-.708c0-2.836,2.277-4.009,2.277-6.537A4.068,4.068,0,0,0,17,14.875a4.064,4.064,0,0,0-4.249,4.088c0,2.527,2.277,3.739,2.277,6.537h3.947ZM29.75,17a3.188,3.188,0,1,1-3.187,3.188A3.189,3.189,0,0,1,29.75,17ZM4.25,17a3.188,3.188,0,1,1-3.187,3.188A3.189,3.189,0,0,1,4.25,17Zm18.233,3.379,1.911.867-.585,1.291L21.97,21.7a6.948,6.948,0,0,0,.513-1.325Zm-10.964,0a6.722,6.722,0,0,0,.51,1.325l-1.836.833-.587-1.291Zm13.273-2.67v1.417H22.665a5.741,5.741,0,0,0-.132-1.417Zm-13.325,0a5.774,5.774,0,0,0-.13,1.412v0H9.208V17.708Zm9.815-2.428,1.76-1.25.82,1.156-1.774,1.258a5.138,5.138,0,0,0-.806-1.165Zm-8.562,0a5.211,5.211,0,0,0-.806,1.166L10.14,15.187l.819-1.156,1.759,1.248ZM19,13.8l.939-1.905,1.271.628-.941,1.905A5.756,5.756,0,0,0,19,13.8Zm-4,0a5.76,5.76,0,0,0-1.271.626l-.939-1.9,1.271-.628ZM11.333.969V4.013A14.2,14.2,0,0,0,3.119,14.154l-2.881,0A17.038,17.038,0,0,1,11.333.969Zm11.333,0a17.038,17.038,0,0,1,11.1,13.181l-2.881,0a14.2,14.2,0,0,0-8.214-10.14V.969ZM17.708,13.5a6,6,0,0,0-1.417,0V11.333h1.417V13.5ZM21.25,9.917h-8.5a2.833,2.833,0,0,1,2.833-2.833h2.833A2.834,2.834,0,0,1,21.25,9.917ZM17,0a3.188,3.188,0,1,1-3.187,3.188A3.189,3.189,0,0,1,17,0Z"/></svg>