<svg xmlns="http://www.w3.org/2000/svg" width="19.874" height="19.874" viewBox="0 0 19.874 19.874"><defs><style>.a{fill-rule:evenodd;}</style></defs><path class="a" d="M11.1,19.874H0V1.656H2.484C3.5,1.656,4.29.759,4.969,0h6.625c.68.759,1.467,1.656,2.484,1.656h2.484V9.233a6.269,6.269,0,0,0-1.242-.124l-.414.013V3.312H11.593L9.937,4.969H6.71L4.969,3.312H1.656V18.218h8.17A6.235,6.235,0,0,0,11.1,19.874Zm4.221-9.109a4.555,4.555,0,1,1-4.555,4.555A4.557,4.557,0,0,1,15.32,10.765Zm0,1.656a2.9,2.9,0,1,1-2.9,2.9A2.9,2.9,0,0,1,15.32,12.421Zm2.07,3.312H14.906V13.25h.828v1.656H17.39ZM4.844,12.378l-.869-.815-.662.682,1.544,1.471,2.6-2.643L6.778,10.4,4.844,12.378Zm5.094.871H8.281v-.828H9.937Zm1.656-1.656H8.281v-.828h3.312ZM4.844,8.26l-.869-.814-.662.682L4.856,9.6l2.6-2.643-.675-.669L4.844,8.26Zm6.75.849H8.281V8.281h3.312Zm0-1.656H8.281V6.625h3.312ZM7.453,2.484a.828.828,0,1,0,.828-.828A.829.829,0,0,0,7.453,2.484Z"/></svg>