<svg xmlns="http://www.w3.org/2000/svg" width="19.874" height="19.874" viewBox="0 0 19.874 19.874"><path d="M18.218,4.969v13.25H4.969V4.969Zm1.656-1.656H3.312V19.874H19.874ZM0,0V16.562H1.656V1.656H16.562V0ZM11.6,9.3a5.5,5.5,0,0,0-4.146,2.151s1.669,2.445,4.146,2.445a5.261,5.261,0,0,0,4.135-2.445A5.366,5.366,0,0,0,11.6,9.3Zm.035,3.906a1.608,1.608,0,1,1,1.607-1.608A1.608,1.608,0,0,1,11.634,13.2Zm.9-1.608a.9.9,0,1,1-1.809,0l.017-.175a.563.563,0,0,0,.725-.715l.163-.016A.9.9,0,0,1,12.538,11.593Z"/></svg>