<svg xmlns="http://www.w3.org/2000/svg" width="16.083" height="15.44" viewBox="0 0 16.083 15.44"><defs><style>.a{fill:#979797;}</style></defs><g transform="translate(0 0)"><path class="a" d="M147.744,16a2.2,2.2,0,0,1,.553,1.5,1.956,1.956,0,0,1-1.929,1.93h-2.784a2.532,2.532,0,0,0,.08.241,1.682,1.682,0,0,0,.11.221c.047.08.08.141.1.181q.181.342.277.563a4.111,4.111,0,0,1,.191.6,3.133,3.133,0,0,1,.1.764c0,.161,0,.292-.005.392a4.329,4.329,0,0,1-.05.452,2.54,2.54,0,0,1-.121.5,2.343,2.343,0,0,1-.241.452,1.409,1.409,0,0,1-.4.407,2.2,2.2,0,0,1-.6.261,3,3,0,0,1-.83.106.618.618,0,0,1-.452-.191,1.745,1.745,0,0,1-.342-.5,2.991,2.991,0,0,1-.2-.523q-.055-.221-.126-.613-.091-.422-.136-.608a3.216,3.216,0,0,0-.176-.487,1.54,1.54,0,0,0-.312-.483,14.86,14.86,0,0,1-1.015-1.206q-.493-.643-1.015-1.216t-.764-.593a.659.659,0,0,1-.432-.206.607.607,0,0,1-.181-.437V11.066a.6.6,0,0,1,.191-.447.665.665,0,0,1,.452-.2,7.35,7.35,0,0,0,1.588-.442q.774-.261,1.211-.4t1.221-.292a7.469,7.469,0,0,1,1.447-.156h1.3a2.5,2.5,0,0,1,1.98.784,2.416,2.416,0,0,1,.493,1.819,1.955,1.955,0,0,1,.543.945,2.067,2.067,0,0,1,0,1.176,2.086,2.086,0,0,1,.432,1.377A2.4,2.4,0,0,1,147.744,16Z" transform="translate(-132.214 -9.136)"/><path class="a" d="M3.538,199.584H.643a.618.618,0,0,1-.452-.191A.618.618,0,0,1,0,198.941v-6.433a.619.619,0,0,1,.191-.452.619.619,0,0,1,.452-.191H3.538a.652.652,0,0,1,.643.643v6.433a.652.652,0,0,1-.643.643Zm-1.156-6.247a.626.626,0,0,0-.452-.186.643.643,0,0,0-.457,1.1.637.637,0,0,0,.91,0,.637.637,0,0,0,0-.91Z" transform="translate(0 -190.577)"/></g></svg>