<svg width="25" height="25" viewBox="0 0 25 25" fill="none" xmlns="http://www.w3.org/2000/svg">
<path d="M22.7141 10.4598H21.875V10.4166H12.5V14.5833H18.387C17.5282 17.0088 15.2204 18.7499 12.5 18.7499C9.04848 18.7499 6.25004 15.9515 6.25004 12.4999C6.25004 9.04836 9.04848 6.24992 12.5 6.24992C14.0933 6.24992 15.5427 6.85096 16.6464 7.83273L19.5927 4.88638C17.7323 3.15252 15.2438 2.08325 12.5 2.08325C6.74744 2.08325 2.08337 6.74731 2.08337 12.4999C2.08337 18.2525 6.74744 22.9166 12.5 22.9166C18.2526 22.9166 22.9167 18.2525 22.9167 12.4999C22.9167 11.8015 22.8448 11.1197 22.7141 10.4598Z" fill="#FFC107"/>
<path d="M3.28442 7.65148L6.70682 10.1614C7.63286 7.86867 9.87557 6.24992 12.5 6.24992C14.0933 6.24992 15.5428 6.85096 16.6464 7.83273L19.5928 4.88638C17.7323 3.15252 15.2438 2.08325 12.5 2.08325C8.49901 2.08325 5.02922 4.34211 3.28442 7.65148Z" fill="#FF3D00"/>
<path d="M12.5 22.9168C15.1906 22.9168 17.6354 21.8871 19.4839 20.2126L16.2599 17.4845C15.1789 18.3066 13.8581 18.7512 12.5 18.7501C9.79062 18.7501 7.4901 17.0225 6.62344 14.6116L3.22656 17.2288C4.95052 20.6022 8.45156 22.9168 12.5 22.9168Z" fill="#4CAF50"/>
<path d="M22.7141 10.46H21.875V10.4167H12.5V14.5834H18.387C17.9761 15.7378 17.2361 16.7465 16.2583 17.485L16.2599 17.4839L19.4839 20.2121C19.2557 20.4194 22.9167 17.7084 22.9167 12.5001C22.9167 11.8016 22.8448 11.1199 22.7141 10.46Z" fill="#1976D2"/>
</svg>
