<svg xmlns="http://www.w3.org/2000/svg" width="240" height="158.183" viewBox="0 0 240 158.183"><g transform="translate(-0.5 126.29)"><path d="M135.781-124.874c-6.844,2.228-8.117,3.342-22.282,16.711C88.035-83.812,80.873-79.515,59.387-75.854,39.175-72.353,29.944-64.713,29.944-51.5c0,11.618-8.276,28.966-15.279,32.149-2.706,1.114-3.979,3.979-5.411,10.823A74.565,74.565,0,0,1,4.161,6.747C2.41,10.249.977,16.615.818,21.867L.5,30.939l12.414.477c12.414.477,12.573.477,11.3-3.183-3.82-11.459-4.934-18.3-3.5-22.282,2.069-5.889,4.138-7.162,13.21-8.276,20.531-2.546,31.672-7.639,40.9-18.78,3.661-4.138,7.162-7.639,7.958-7.639s0,1.592-1.91,3.5l-3.183,3.5,3.5,2.069c2.069.955,8.913,2.865,15.279,3.82,8.276,1.432,11.459,2.706,11.618,4.456.477,5.889-.637,10.982-3.82,17.666a57.569,57.569,0,0,0-3.979,16.393l-.637,9.231,10.823-.477c11.937-.477,12.1-.637,10.027-10.5-.637-2.706-.477-5.093.318-5.093s1.432,1.273,1.432,3.024A33.11,33.11,0,0,0,124,26.8c1.592,4.775,2.069,4.934,10.345,4.934,7.8,0,8.594-.318,8.594-3.661,0-1.91-1.432-6.366-3.024-10.027-3.024-6.525-2.865-6.684.637-16.711,2.069-5.57,4.775-12.892,6.366-16.393,3.024-7.162,2.228-7.162-8.594-.318-7.321,4.615-16.075,18.3-16.075,25.146,0,2.546-.637,4.456-1.432,4.456-1.91,0,.318-9.072,3.661-15.756,3.82-7.162,21.645-34.7,21.645-33.263,0,.637-2.069,4.775-4.775,9.231-2.546,4.3-3.979,7.958-3.183,7.958,4.615,0,24.032-14.165,31.672-23.237,8.754-10.186,11.141-10.823,11.3-2.865a9.949,9.949,0,0,0,7.321,9.231c3.342,1.114,11.777-6.048,24.032-20.213,4.138-4.934,5.889-5.889,9.39-5.252,2.546.477,7.321-.477,11.141-2.069,9.231-4.138,10.027-6.366,1.751-4.934-10.5,2.069-21.168.637-26.579-3.5-4.138-3.024-5.411-3.183-7.958-1.592s-2.865,1.432-2.228-.318c1.592-3.979,5.093-3.979,10.823-.159,5.093,3.5,5.73,3.5,5.73,1.114,0-5.73-12.573-19.258-34.855-37.083C160.45-124.237,147.559-129.012,135.781-124.874Z" transform="translate(0 0)"/><path d="M13.278-111.226c-7.321,7-7.321,7-2.546,6.207,2.706-.477,7.958-2.706,11.777-4.934,6.207-3.661,7.48-3.82,13.051-2.228,10.186,3.024,8.117,8.435-6.525,17.984-14.642,9.39-20.053,17.666-14.8,22.282,4.3,3.82,9.868,4.934,12.414,2.865,3.5-2.865,2.865-4.138-2.706-5.889L18.689-76.53l7.48-7A164.722,164.722,0,0,1,38.584-94.674a33.58,33.58,0,0,0,7.48-8.435c2.228-4.138,2.069-4.775-.637-7.48a15.894,15.894,0,0,0-6.844-3.661c-2.228-.318-7.162-1.432-10.982-2.228C20.758-118.069,20.6-118.069,13.278-111.226Z" transform="translate(4.092 5.291)"/><path d="M154.488-96.293A50.984,50.984,0,0,1,142.233-94.7c-6.844.159-7.321.477-5.889,3.183.8,1.751,2.546,3.024,3.82,3.024,2.865,0,19.894-7.48,19.894-8.594,0-.637-.159-.955-.318-.8C159.421-97.885,157.193-97.089,154.488-96.293Z" transform="translate(79.97 16.779)"/><path d="M55.625-52.652c-3.82,3.342-8.754,6.844-11.141,7.958-2.228.955-7.321,5.73-10.982,10.663-5.73,7.639-6.684,10.345-6.844,17.03L26.5-9.044l12.414.477c14.006.477,13.846.637,9.708-12.255-3.183-9.708-2.546-10.823,10.345-17.666,8.594-4.615,20.372-13.846,19.1-14.961-.318-.159-3.979-1.592-8.117-2.865L62.31-58.7Z" transform="translate(15.38 39.982)"/></g></svg>