<svg xmlns="http://www.w3.org/2000/svg" width="24" height="20" viewBox="0 0 24 20"><path d="M11.885,14.988l3.1-3.1L15,12a3,3,0,0,1-3,3l-.115-.012Zm8.048-8.032-3.274,3.268A4.952,4.952,0,0,1,17,12a5.006,5.006,0,0,1-5,5,4.951,4.951,0,0,1-1.785-.344L7.838,19.028A9.927,9.927,0,0,0,12.015,20C19.748,20,24,11.551,24,11.551a18.1,18.1,0,0,0-4.067-4.595ZM21.364,3.42,2.745,22,1.363,20.578l3.455-3.447A22.569,22.569,0,0,1,0,11.551S4.446,4,12.015,4A11.727,11.727,0,0,1,16.9,5.075L19.982,2l1.382,1.42ZM7.613,14.342l1.519-1.515A2.938,2.938,0,0,1,9,12a3,3,0,0,1,3-3,2.91,2.91,0,0,1,.833.134l1.518-1.515A4.906,4.906,0,0,0,12,7a5.006,5.006,0,0,0-5,5A4.911,4.911,0,0,0,7.613,14.342Z" transform="translate(0 -2)"/></svg>